<svg
	data-v-423bf9ae=""
	xmlns="http://www.w3.org/2000/svg"
	viewBox="0 0 469.21657195846024 163"
	class="iconAbove"
>
	<g
		data-v-423bf9ae=""
		id="c5809586-0286-4d06-96b3-53b98cb87fce"
		fill="white"
		transform="matrix(4.608294768854844,0,0,4.608294768854844,-3.087553892248792,88.4838677007659)"
	>
		<path
			d="M4.26 13.23L4.26 13.23Q3.16 13.23 2.36 12.87L2.36 12.87L2.36 12.87Q1.55 12.52 1.13 11.94L1.13 11.94L1.13 11.94Q0.70 11.37 0.67 10.71L0.67 10.71L0.67 10.71Q0.67 10.60 0.76 10.51L0.76 10.51L0.76 10.51Q0.84 10.43 0.97 10.43L0.97 10.43L1.25 10.43L1.25 10.43Q1.50 10.43 1.55 10.71L1.55 10.71L1.55 10.71Q1.65 11.38 2.32 11.89L2.32 11.89L2.32 11.89Q3.00 12.39 4.26 12.39L4.26 12.39L4.26 12.39Q5.59 12.39 6.24 11.91L6.24 11.91L6.24 11.91Q6.89 11.42 6.89 10.56L6.89 10.56L6.89 10.56Q6.89 10.02 6.57 9.68L6.57 9.68L6.57 9.68Q6.26 9.34 5.66 9.08L5.66 9.08L5.66 9.08Q5.05 8.82 3.84 8.43L3.84 8.43L3.84 8.43Q2.76 8.08 2.15 7.74L2.15 7.74L2.15 7.74Q1.54 7.41 1.25 6.92L1.25 6.92L1.25 6.92Q0.95 6.43 0.95 5.67L0.95 5.67L0.95 5.67Q0.95 4.96 1.34 4.38L1.34 4.38L1.34 4.38Q1.72 3.81 2.45 3.48L2.45 3.48L2.45 3.48Q3.18 3.15 4.19 3.15L4.19 3.15L4.19 3.15Q5.22 3.15 5.96 3.52L5.96 3.52L5.96 3.52Q6.71 3.89 7.08 4.46L7.08 4.46L7.08 4.46Q7.46 5.03 7.49 5.60L7.49 5.60L7.49 5.60Q7.49 5.71 7.41 5.80L7.41 5.80L7.41 5.80Q7.34 5.88 7.20 5.88L7.20 5.88L6.92 5.88L6.92 5.88Q6.82 5.88 6.72 5.82L6.72 5.82L6.72 5.82Q6.62 5.75 6.61 5.60L6.61 5.60L6.61 5.60Q6.52 4.90 5.86 4.45L5.86 4.45L5.86 4.45Q5.19 3.99 4.19 3.99L4.19 3.99L4.19 3.99Q3.11 3.99 2.47 4.41L2.47 4.41L2.47 4.41Q1.83 4.83 1.83 5.67L1.83 5.67L1.83 5.67Q1.83 6.22 2.12 6.57L2.12 6.57L2.12 6.57Q2.41 6.93 2.98 7.19L2.98 7.19L2.98 7.19Q3.56 7.45 4.68 7.81L4.68 7.81L4.68 7.81Q5.82 8.18 6.47 8.51L6.47 8.51L6.47 8.51Q7.11 8.85 7.44 9.32L7.44 9.32L7.44 9.32Q7.77 9.80 7.77 10.56L7.77 10.56L7.77 10.56Q7.77 11.82 6.83 12.52L6.83 12.52L6.83 12.52Q5.89 13.23 4.26 13.23L4.26 13.23ZM12.38 13.23L12.38 13.23Q10.92 13.23 10.12 12.34L10.12 12.34L10.12 12.34Q9.31 11.45 9.27 10.04L9.27 10.04L9.25 9.45L9.27 8.86L9.27 8.86Q9.31 7.45 10.12 6.56L10.12 6.56L10.12 6.56Q10.92 5.67 12.38 5.67L12.38 5.67L12.38 5.67Q13.83 5.67 14.64 6.56L14.64 6.56L14.64 6.56Q15.44 7.45 15.48 8.86L15.48 8.86L15.48 8.86Q15.50 9.00 15.50 9.45L15.50 9.45L15.50 9.45Q15.50 9.90 15.48 10.04L15.48 10.04L15.48 10.04Q15.44 11.45 14.64 12.34L14.64 12.34L14.64 12.34Q13.83 13.23 12.38 13.23L12.38 13.23ZM12.38 12.42L12.38 12.42Q13.37 12.42 13.98 11.78L13.98 11.78L13.98 11.78Q14.59 11.14 14.63 9.97L14.63 9.97L14.63 9.97Q14.64 9.83 14.64 9.45L14.64 9.45L14.64 9.45Q14.64 9.07 14.63 8.93L14.63 8.93L14.63 8.93Q14.59 7.76 13.98 7.12L13.98 7.12L13.98 7.12Q13.37 6.48 12.38 6.48L12.38 6.48L12.38 6.48Q11.38 6.48 10.77 7.12L10.77 7.12L10.77 7.12Q10.16 7.76 10.12 8.93L10.12 8.93L10.11 9.45L10.12 9.97L10.12 9.97Q10.16 11.14 10.77 11.78L10.77 11.78L10.77 11.78Q11.38 12.42 12.38 12.42L12.38 12.42ZM18.65 15.75L18.65 15.75Q18.54 15.75 18.45 15.67L18.45 15.67L18.45 15.67Q18.37 15.58 18.37 15.47L18.37 15.47L18.37 15.47Q18.37 15.40 18.45 15.19L18.45 15.19L19.53 12.67L16.86 6.37L16.86 6.37Q16.77 6.16 16.77 6.09L16.77 6.09L16.77 6.09Q16.77 5.98 16.86 5.89L16.86 5.89L16.86 5.89Q16.94 5.81 17.05 5.81L17.05 5.81L17.35 5.81L17.35 5.81Q17.57 5.81 17.67 6.02L17.67 6.02L20.02 11.56L22.43 6.02L22.43 6.02Q22.54 5.81 22.75 5.81L22.75 5.81L23.03 5.81L23.03 5.81Q23.14 5.81 23.23 5.89L23.23 5.89L23.23 5.89Q23.31 5.98 23.31 6.09L23.31 6.09L23.31 6.09Q23.31 6.16 23.23 6.37L23.23 6.37L19.25 15.54L19.25 15.54Q19.15 15.75 18.93 15.75L18.93 15.75L18.65 15.75ZM31.37 13.23L31.37 13.23Q29.92 13.23 28.97 12.51L28.97 12.51L28.97 12.51Q28.03 11.79 27.97 10.37L27.97 10.37L27.97 10.37Q27.97 10.23 28.05 10.15L28.05 10.15L28.05 10.15Q28.13 10.07 28.27 10.07L28.27 10.07L28.55 10.07L28.55 10.07Q28.69 10.07 28.76 10.15L28.76 10.15L28.76 10.15Q28.84 10.23 28.85 10.36L28.85 10.36L28.85 10.36Q28.94 11.40 29.63 11.89L29.63 11.89L29.63 11.89Q30.32 12.39 31.37 12.39L31.37 12.39L31.37 12.39Q32.58 12.39 33.23 11.60L33.23 11.60L33.23 11.60Q33.88 10.81 33.88 9.51L33.88 9.51L33.88 4.13L28.71 4.13L28.71 4.13Q28.57 4.13 28.49 4.05L28.49 4.05L28.49 4.05Q28.41 3.96 28.41 3.82L28.41 3.82L28.41 3.60L28.41 3.60Q28.41 3.46 28.49 3.37L28.49 3.37L28.49 3.37Q28.57 3.29 28.71 3.29L28.71 3.29L34.44 3.29L34.44 3.29Q34.59 3.29 34.68 3.37L34.68 3.37L34.68 3.37Q34.76 3.46 34.76 3.61L34.76 3.61L34.76 9.52L34.76 9.52Q34.76 11.20 33.87 12.21L33.87 12.21L33.87 12.21Q32.98 13.23 31.37 13.23L31.37 13.23ZM39.90 13.23L39.90 13.23Q38.44 13.23 37.64 12.34L37.64 12.34L37.64 12.34Q36.83 11.45 36.79 10.04L36.79 10.04L36.78 9.45L36.79 8.86L36.79 8.86Q36.83 7.45 37.64 6.56L37.64 6.56L37.64 6.56Q38.44 5.67 39.90 5.67L39.90 5.67L39.90 5.67Q41.36 5.67 42.16 6.56L42.16 6.56L42.16 6.56Q42.97 7.45 43.01 8.86L43.01 8.86L43.01 8.86Q43.02 9.00 43.02 9.45L43.02 9.45L43.02 9.45Q43.02 9.90 43.01 10.04L43.01 10.04L43.01 10.04Q42.97 11.45 42.16 12.34L42.16 12.34L42.16 12.34Q41.36 13.23 39.90 13.23L39.90 13.23ZM39.90 12.42L39.90 12.42Q40.89 12.42 41.50 11.78L41.50 11.78L41.50 11.78Q42.11 11.14 42.15 9.97L42.15 9.97L42.15 9.97Q42.17 9.83 42.17 9.45L42.17 9.45L42.17 9.45Q42.17 9.07 42.15 8.93L42.15 8.93L42.15 8.93Q42.11 7.76 41.50 7.12L41.50 7.12L41.50 7.12Q40.89 6.48 39.90 6.48L39.90 6.48L39.90 6.48Q38.91 6.48 38.30 7.12L38.30 7.12L38.30 7.12Q37.69 7.76 37.65 8.93L37.65 8.93L37.63 9.45L37.65 9.97L37.65 9.97Q37.69 11.14 38.30 11.78L38.30 11.78L38.30 11.78Q38.91 12.42 39.90 12.42L39.90 12.42ZM47.25 13.23L47.25 13.23Q46.34 13.23 45.72 12.92L45.72 12.92L45.72 12.92Q45.09 12.61 44.78 12.22L44.78 12.22L44.78 12.22Q44.46 11.83 44.46 11.59L44.46 11.59L44.46 11.59Q44.46 11.47 44.56 11.39L44.56 11.39L44.56 11.39Q44.66 11.31 44.77 11.31L44.77 11.31L44.98 11.31L44.98 11.31Q45.08 11.31 45.14 11.35L45.14 11.35L45.14 11.35Q45.21 11.38 45.29 11.49L45.29 11.49L45.29 11.49Q45.60 11.93 46.04 12.17L46.04 12.17L46.04 12.17Q46.48 12.42 47.25 12.42L47.25 12.42L47.25 12.42Q48.12 12.42 48.65 12.09L48.65 12.09L48.65 12.09Q49.18 11.76 49.18 11.14L49.18 11.14L49.18 11.14Q49.18 10.77 48.96 10.53L48.96 10.53L48.96 10.53Q48.75 10.29 48.27 10.12L48.27 10.12L48.27 10.12Q47.78 9.94 46.83 9.72L46.83 9.72L46.83 9.72Q45.58 9.44 45.13 8.95L45.13 8.95L45.13 8.95Q44.67 8.46 44.67 7.70L44.67 7.70L44.67 7.70Q44.67 7.18 44.96 6.72L44.96 6.72L44.96 6.72Q45.25 6.26 45.81 5.96L45.81 5.96L45.81 5.96Q46.38 5.67 47.18 5.67L47.18 5.67L47.18 5.67Q48.02 5.67 48.60 5.96L48.60 5.96L48.60 5.96Q49.18 6.24 49.47 6.62L49.47 6.62L49.47 6.62Q49.76 7 49.76 7.24L49.76 7.24L49.76 7.24Q49.76 7.36 49.66 7.44L49.66 7.44L49.66 7.44Q49.57 7.52 49.45 7.52L49.45 7.52L49.24 7.52L49.24 7.52Q49.04 7.52 48.93 7.34L48.93 7.34L48.93 7.34Q48.65 6.92 48.29 6.70L48.29 6.70L48.29 6.70Q47.94 6.48 47.18 6.48L47.18 6.48L47.18 6.48Q46.37 6.48 45.95 6.82L45.95 6.82L45.95 6.82Q45.53 7.15 45.53 7.70L45.53 7.70L45.53 7.70Q45.53 8.04 45.70 8.26L45.70 8.26L45.70 8.26Q45.86 8.48 46.33 8.67L46.33 8.67L46.33 8.67Q46.79 8.86 47.67 9.06L47.67 9.06L47.67 9.06Q48.97 9.35 49.50 9.84L49.50 9.84L49.50 9.84Q50.04 10.33 50.04 11.14L50.04 11.14L50.04 11.14Q50.04 11.72 49.71 12.19L49.71 12.19L49.71 12.19Q49.39 12.67 48.76 12.95L48.76 12.95L48.76 12.95Q48.13 13.23 47.25 13.23L47.25 13.23ZM54.53 13.23L54.53 13.23Q53.20 13.23 52.39 12.36L52.39 12.36L52.39 12.36Q51.58 11.48 51.46 10.01L51.46 10.01L51.45 9.45L51.46 8.89L51.46 8.89Q51.58 7.43 52.38 6.55L52.38 6.55L52.38 6.55Q53.19 5.67 54.53 5.67L54.53 5.67L54.53 5.67Q55.99 5.67 56.80 6.64L56.80 6.64L56.80 6.64Q57.62 7.60 57.62 9.28L57.62 9.28L57.62 9.49L57.62 9.49Q57.62 9.63 57.53 9.72L57.53 9.72L57.53 9.72Q57.44 9.80 57.30 9.80L57.30 9.80L52.32 9.80L52.32 9.94L52.32 9.94Q52.35 10.60 52.62 11.16L52.62 11.16L52.62 11.16Q52.89 11.73 53.38 12.07L53.38 12.07L53.38 12.07Q53.87 12.42 54.53 12.42L54.53 12.42L54.53 12.42Q55.30 12.42 55.78 12.12L55.78 12.12L55.78 12.12Q56.27 11.82 56.48 11.51L56.48 11.51L56.48 11.51Q56.60 11.34 56.66 11.30L56.66 11.30L56.66 11.30Q56.73 11.26 56.90 11.26L56.90 11.26L57.12 11.26L57.12 11.26Q57.25 11.26 57.33 11.33L57.33 11.33L57.33 11.33Q57.41 11.40 57.41 11.51L57.41 11.51L57.41 11.51Q57.41 11.80 57.04 12.21L57.04 12.21L57.04 12.21Q56.67 12.63 56.01 12.93L56.01 12.93L56.01 12.93Q55.36 13.23 54.53 13.23L54.53 13.23ZM52.32 9.02L56.77 9.02L56.77 8.96L56.77 8.96Q56.77 7.88 56.16 7.18L56.16 7.18L56.16 7.18Q55.55 6.48 54.53 6.48L54.53 6.48L54.53 6.48Q53.51 6.48 52.91 7.18L52.91 7.18L52.91 7.18Q52.32 7.88 52.32 8.96L52.32 8.96L52.32 9.02ZM63.57 13.09L63.57 13.09Q63.43 13.09 63.35 13.01L63.35 13.01L63.35 13.01Q63.27 12.92 63.27 12.78L63.27 12.78L63.27 3.61L63.27 3.61Q63.27 3.47 63.35 3.38L63.35 3.38L63.35 3.38Q63.43 3.29 63.57 3.29L63.57 3.29L63.87 3.29L63.87 3.29Q64.05 3.29 64.16 3.46L64.16 3.46L69.33 11.35L69.33 3.61L69.33 3.61Q69.33 3.47 69.41 3.38L69.41 3.38L69.41 3.38Q69.50 3.29 69.64 3.29L69.64 3.29L69.89 3.29L69.89 3.29Q70.04 3.29 70.13 3.37L70.13 3.37L70.13 3.37Q70.21 3.46 70.21 3.61L70.21 3.61L70.21 12.77L70.21 12.77Q70.21 12.91 70.13 13.00L70.13 13.00L70.13 13.00Q70.04 13.09 69.90 13.09L69.90 13.09L69.59 13.09L69.59 13.09Q69.41 13.09 69.30 12.92L69.30 12.92L64.15 5.05L64.15 12.78L64.15 12.78Q64.15 12.92 64.06 13.01L64.06 13.01L64.06 13.01Q63.97 13.09 63.83 13.09L63.83 13.09L63.57 13.09ZM75.36 13.23L75.36 13.23Q74.03 13.23 73.22 12.36L73.22 12.36L73.22 12.36Q72.41 11.48 72.30 10.01L72.30 10.01L72.28 9.45L72.30 8.89L72.30 8.89Q72.41 7.43 73.21 6.55L73.21 6.55L73.21 6.55Q74.02 5.67 75.36 5.67L75.36 5.67L75.36 5.67Q76.82 5.67 77.64 6.64L77.64 6.64L77.64 6.64Q78.46 7.60 78.46 9.28L78.46 9.28L78.46 9.49L78.46 9.49Q78.46 9.63 78.36 9.72L78.36 9.72L78.36 9.72Q78.27 9.80 78.13 9.80L78.13 9.80L73.15 9.80L73.15 9.94L73.15 9.94Q73.18 10.60 73.45 11.16L73.45 11.16L73.45 11.16Q73.72 11.73 74.21 12.07L74.21 12.07L74.21 12.07Q74.70 12.42 75.36 12.42L75.36 12.42L75.36 12.42Q76.13 12.42 76.61 12.12L76.61 12.12L76.61 12.12Q77.10 11.82 77.31 11.51L77.31 11.51L77.31 11.51Q77.43 11.34 77.50 11.30L77.50 11.30L77.50 11.30Q77.56 11.26 77.73 11.26L77.73 11.26L77.95 11.26L77.95 11.26Q78.08 11.26 78.16 11.33L78.16 11.33L78.16 11.33Q78.25 11.40 78.25 11.51L78.25 11.51L78.25 11.51Q78.25 11.80 77.88 12.21L77.88 12.21L77.88 12.21Q77.50 12.63 76.85 12.93L76.85 12.93L76.85 12.93Q76.19 13.23 75.36 13.23L75.36 13.23ZM73.15 9.02L77.60 9.02L77.60 8.96L77.60 8.96Q77.60 7.88 76.99 7.18L76.99 7.18L76.99 7.18Q76.38 6.48 75.36 6.48L75.36 6.48L75.36 6.48Q74.34 6.48 73.74 7.18L73.74 7.18L73.74 7.18Q73.15 7.88 73.15 8.96L73.15 8.96L73.15 9.02ZM83.02 16.17L83.02 16.17Q81.93 16.17 81.27 15.79L81.27 15.79L81.27 15.79Q80.61 15.41 80.35 14.93L80.35 14.93L80.35 14.93Q80.09 14.45 80.09 14.08L80.09 14.08L80.09 14.08Q80.09 13.96 80.19 13.87L80.19 13.87L80.19 13.87Q80.28 13.79 80.40 13.79L80.40 13.79L80.60 13.79L80.60 13.79Q80.72 13.79 80.80 13.85L80.80 13.85L80.80 13.85Q80.88 13.92 80.93 14.08L80.93 14.08L80.93 14.08Q81.37 15.36 82.95 15.36L82.95 15.36L82.95 15.36Q84.15 15.36 84.73 14.86L84.73 14.86L84.73 14.86Q85.30 14.36 85.30 13.09L85.30 13.09L85.30 12.12L85.30 12.12Q84.49 13.23 82.95 13.23L82.95 13.23L82.95 13.23Q81.44 13.23 80.72 12.24L80.72 12.24L80.72 12.24Q80.00 11.26 79.95 9.84L79.95 9.84L79.94 9.45L79.95 9.06L79.95 9.06Q80.00 7.64 80.72 6.66L80.72 6.66L80.72 6.66Q81.44 5.67 82.95 5.67L82.95 5.67L82.95 5.67Q84.48 5.67 85.30 6.78L85.30 6.78L85.30 6.13L85.30 6.13Q85.30 5.99 85.39 5.90L85.39 5.90L85.39 5.90Q85.47 5.81 85.61 5.81L85.61 5.81L85.83 5.81L85.83 5.81Q85.97 5.81 86.06 5.90L86.06 5.90L86.06 5.90Q86.16 5.99 86.16 6.13L86.16 6.13L86.16 12.95L86.16 12.95Q86.16 14.45 85.46 15.31L85.46 15.31L85.46 15.31Q84.76 16.17 83.02 16.17L83.02 16.17ZM83.03 12.42L83.03 12.42Q84.14 12.42 84.70 11.68L84.70 11.68L84.70 11.68Q85.26 10.95 85.30 9.95L85.30 9.95L85.30 9.95Q85.32 9.81 85.32 9.45L85.32 9.45L85.32 9.45Q85.32 9.09 85.30 8.95L85.30 8.95L85.30 8.95Q85.26 7.95 84.70 7.22L84.70 7.22L84.70 7.22Q84.14 6.48 83.03 6.48L83.03 6.48L83.03 6.48Q81.90 6.48 81.38 7.20L81.38 7.20L81.38 7.20Q80.85 7.92 80.81 9.06L80.81 9.06L80.79 9.45L80.81 9.84L80.81 9.84Q80.85 10.98 81.38 11.70L81.38 11.70L81.38 11.70Q81.90 12.42 83.03 12.42L83.03 12.42ZM88.75 13.09L88.75 13.09Q88.61 13.09 88.52 13.01L88.52 13.01L88.52 13.01Q88.44 12.92 88.44 12.78L88.44 12.78L88.44 6.13L88.44 6.13Q88.44 5.99 88.52 5.90L88.52 5.90L88.52 5.90Q88.61 5.81 88.75 5.81L88.75 5.81L88.97 5.81L88.97 5.81Q89.11 5.81 89.20 5.90L89.20 5.90L89.20 5.90Q89.29 5.99 89.29 6.13L89.29 6.13L89.29 6.78L89.29 6.78Q89.80 5.81 91.20 5.81L91.20 5.81L91.71 5.81L91.71 5.81Q91.85 5.81 91.94 5.89L91.94 5.89L91.94 5.89Q92.02 5.98 92.02 6.12L92.02 6.12L92.02 6.31L92.02 6.31Q92.02 6.45 91.94 6.54L91.94 6.54L91.94 6.54Q91.85 6.62 91.71 6.62L91.71 6.62L91.11 6.62L91.11 6.62Q90.27 6.62 89.78 7.11L89.78 7.11L89.78 7.11Q89.29 7.60 89.29 8.44L89.29 8.44L89.29 12.78L89.29 12.78Q89.29 12.92 89.20 13.01L89.20 13.01L89.20 13.01Q89.11 13.09 88.97 13.09L88.97 13.09L88.75 13.09ZM93.46 4.31L93.46 4.31Q93.32 4.31 93.24 4.23L93.24 4.23L93.24 4.23Q93.16 4.14 93.16 4.00L93.16 4.00L93.16 3.47L93.16 3.47Q93.16 3.33 93.24 3.24L93.24 3.24L93.24 3.24Q93.32 3.15 93.46 3.15L93.46 3.15L94.00 3.15L94.00 3.15Q94.14 3.15 94.23 3.24L94.23 3.24L94.23 3.24Q94.32 3.33 94.32 3.47L94.32 3.47L94.32 4.00L94.32 4.00Q94.32 4.14 94.23 4.23L94.23 4.23L94.23 4.23Q94.14 4.31 94.00 4.31L94.00 4.31L93.46 4.31ZM93.62 13.09L93.62 13.09Q93.48 13.09 93.39 13.01L93.39 13.01L93.39 13.01Q93.31 12.92 93.31 12.78L93.31 12.78L93.31 6.12L93.31 6.12Q93.31 5.98 93.39 5.89L93.39 5.89L93.39 5.89Q93.48 5.81 93.62 5.81L93.62 5.81L93.86 5.81L93.86 5.81Q94.00 5.81 94.08 5.89L94.08 5.89L94.08 5.89Q94.16 5.98 94.16 6.12L94.16 6.12L94.16 12.78L94.16 12.78Q94.16 12.92 94.08 13.01L94.08 13.01L94.08 13.01Q94.00 13.09 93.86 13.09L93.86 13.09L93.62 13.09ZM96.74 13.09L96.74 13.09Q96.60 13.09 96.52 13.01L96.52 13.01L96.52 13.01Q96.43 12.92 96.43 12.78L96.43 12.78L96.43 6.12L96.43 6.12Q96.43 5.98 96.52 5.89L96.52 5.89L96.52 5.89Q96.60 5.81 96.74 5.81L96.74 5.81L96.98 5.81L96.98 5.81Q97.12 5.81 97.20 5.89L97.20 5.89L97.20 5.89Q97.29 5.98 97.29 6.12L97.29 6.12L97.29 6.78L97.29 6.78Q97.71 6.23 98.25 5.95L98.25 5.95L98.25 5.95Q98.78 5.67 99.64 5.67L99.64 5.67L99.64 5.67Q101.01 5.67 101.75 6.54L101.75 6.54L101.75 6.54Q102.49 7.42 102.49 8.81L102.49 8.81L102.49 12.78L102.49 12.78Q102.49 12.92 102.41 13.01L102.41 13.01L102.41 13.01Q102.33 13.09 102.19 13.09L102.19 13.09L101.95 13.09L101.95 13.09Q101.81 13.09 101.72 13.01L101.72 13.01L101.72 13.01Q101.64 12.92 101.64 12.78L101.64 12.78L101.64 8.88L101.64 8.88Q101.64 7.74 101.09 7.11L101.09 7.11L101.09 7.11Q100.53 6.48 99.50 6.48L99.50 6.48L99.50 6.48Q98.49 6.48 97.89 7.12L97.89 7.12L97.89 7.12Q97.29 7.76 97.29 8.88L97.29 8.88L97.29 12.78L97.29 12.78Q97.29 12.92 97.20 13.01L97.20 13.01L97.20 13.01Q97.12 13.09 96.98 13.09L96.98 13.09L96.74 13.09Z"
		>
		</path>
	</g>
	<g
		data-v-423bf9ae=""
		id="086e4b98-0852-4871-84be-4e8a1881a9c2"
		transform="matrix(1.4186863674369645,0,0,1.4186863674369645,164.56568162815176,-25.645646794641365)"
		stroke="none"
		fill="white"
	>
		<switch
			><g>
				<path
					d="M30.5 25c-1.7-1.6-4.5-1.6-6.1.2L3.7 47c-1.6 1.7-1.6 4.3 0 5.9l20.7 21.9c.8.9 2 1.4 3.1 1.4s2.1-.4 3-1.2c1.7-1.6 1.8-4.4.2-6.1L12.7 50l17.9-18.9c1.7-1.8 1.6-4.5-.1-6.1zM96.3 47L75.6 25.1c-1.6-1.7-4.4-1.8-6.1-.2-1.7 1.6-1.8 4.4-.2 6.1l18 19-17.9 18.9c-1.6 1.7-1.6 4.5.2 6.1.8.8 1.9 1.2 3 1.2s2.3-.5 3.1-1.4L96.3 53c1.6-1.7 1.6-4.3 0-6zM58.1 18.4c-2.3-.6-4.7.8-5.3 3.1l-14 54.8c-.6 2.3.8 4.7 3.1 5.3.4.1.7.1 1.1.1 1.9 0 3.7-1.3 4.2-3.2l14-54.8c.6-2.3-.8-4.7-3.1-5.3z"
				>
				</path>
			</g>
		</switch>
	</g>
</svg>
